<svg width="26" height="26" viewBox="0 0 26 26" fill="none" xmlns="http://www.w3.org/2000/svg">
<g id="icon 3" clip-path="url(#clip0_1412_11097)">
<g id="Layer_x0020_1">
<g id="_2175499047600">
<path id="Vector" fill-rule="evenodd" clip-rule="evenodd" d="M3.05076 2.0213H4.51968V4.15689C4.51968 4.83366 4.79775 5.44726 5.24206 5.88942H5.2481C5.69543 6.33157 6.309 6.6083 6.98301 6.6083C7.65702 6.6083 8.27059 6.33157 8.71792 5.88942H8.72396C9.16827 5.44726 9.44633 4.83366 9.44633 4.15689V2.0213H16.5522V4.15689C16.5522 4.83366 16.8303 5.44726 17.2746 5.88942H17.2806C17.7279 6.33157 18.3415 6.6083 19.0155 6.6083C19.6895 6.6083 20.3031 6.33157 20.7504 5.88942H20.7565C21.2008 5.44726 21.4788 4.83366 21.4788 4.15689V2.0213H22.9478C24.6253 2.0213 25.9975 3.38687 25.9975 5.05624V22.9651C25.9975 24.6344 24.6253 26 22.9478 26H3.04773C1.37026 26 -0.00195312 24.6344 -0.00195312 22.9651V5.05624C-0.00195312 3.38687 1.37026 2.0213 3.04773 2.0213H3.05076ZM1.92337 8.99654H24.0782V22.3244C24.0782 23.2508 23.3165 24.0088 22.3856 24.0088H3.61898C2.68806 24.0088 1.92639 23.2508 1.92639 22.3244V8.99654H1.92337Z" fill="#4B73DB"/>
<path id="Vector_2" fill-rule="evenodd" clip-rule="evenodd" d="M6.98389 0C7.51585 0 7.95411 0.433133 7.95411 0.965525C7.95411 1.53401 7.95411 3.59139 7.95411 4.15988C7.95411 4.68926 7.51887 5.1254 6.98389 5.1254C6.45193 5.1254 6.01367 4.69227 6.01367 4.15988C6.01367 3.59139 6.01367 1.53401 6.01367 0.965525C6.01367 0.436141 6.44891 0 6.98389 0ZM19.0164 0C19.5484 0 19.9866 0.433133 19.9866 0.965525C19.9866 1.53401 19.9866 3.59139 19.9866 4.15988C19.9866 4.68926 19.5514 5.1254 19.0164 5.1254C18.4844 5.1254 18.0462 4.69227 18.0462 4.15988C18.0462 3.59139 18.0462 1.53401 18.0462 0.965525C18.0462 0.436141 18.4814 0 19.0164 0Z" fill="#4B73DB"/>
<path id="Vector_3" d="M6.91016 15.8214L11.1991 19.7316L19.0908 11.3938" stroke="#4B73DB" stroke-width="2" stroke-miterlimit="22.9256" stroke-linecap="round" stroke-linejoin="round"/>
</g>
</g>
</g>
<defs>
<clipPath id="clip0_1412_11097">
<rect width="26" height="26" fill="white"/>
</clipPath>
</defs>
</svg>
