<svg width="72" height="73" viewBox="0 0 72 73" fill="none" xmlns="http://www.w3.org/2000/svg">
<circle cx="36" cy="36.5" r="35.5" fill="white" stroke="#919CB8"/>
<path d="M51.617 32.9793H50.3752V32.9154H36.5002V39.082H45.2129C43.9418 42.6718 40.5262 45.2487 36.5002 45.2487C31.3919 45.2487 27.2502 41.107 27.2502 35.9987C27.2502 30.8904 31.3919 26.7487 36.5002 26.7487C38.8581 26.7487 41.0034 27.6382 42.6368 29.0913L46.9974 24.7307C44.244 22.1646 40.5609 20.582 36.5002 20.582C27.9863 20.582 21.0835 27.4848 21.0835 35.9987C21.0835 44.5126 27.9863 51.4154 36.5002 51.4154C45.014 51.4154 51.9168 44.5126 51.9168 35.9987C51.9168 34.965 51.8105 33.956 51.617 32.9793Z" fill="#FFC702"/>
<path d="M22.8608 28.823L27.926 32.5377C29.2965 29.1444 32.6157 26.7487 36.5 26.7487C38.8579 26.7487 41.0032 27.6382 42.6366 29.0913L46.9972 24.7307C44.2438 22.1646 40.5607 20.582 36.5 20.582C30.5784 20.582 25.4431 23.9251 22.8608 28.823Z" fill="#FF3D00"/>
<path d="M36.5001 51.4167C40.4822 51.4167 44.1005 49.8928 46.8362 47.4145L42.0647 43.3769C40.4649 44.5936 38.51 45.2516 36.5001 45.25C32.4902 45.25 29.0854 42.6932 27.8028 39.125L22.7754 42.9984C25.3268 47.9911 30.5084 51.4167 36.5001 51.4167Z" fill="#4CAF50"/>
<path d="M51.6168 32.9819H50.375V32.918H36.5V39.0846H45.2127C44.6047 40.7931 43.5095 42.286 42.0623 43.3789L42.0646 43.3774L46.8361 47.415C46.4985 47.7218 51.9167 43.7096 51.9167 36.0013C51.9167 34.9676 51.8103 33.9586 51.6168 32.9819Z" fill="#4B73DB"/>
</svg>
