<svg width="72" height="73" viewBox="0 0 72 73" fill="none" xmlns="http://www.w3.org/2000/svg">
<circle cx="36" cy="36.5" r="35.5" fill="white" stroke="#919CB8"/>
<g clip-path="url(#clip0_443_24847)">
<path d="M40.911 20.5H31.088C22.124 20.5 19.999 22.625 19.999 31.589V41.412C19.999 50.376 22.124 52.501 31.088 52.501H40.911C49.875 52.501 52 50.376 52 41.412V31.589C52 22.625 49.854 20.5 40.911 20.5ZM45.833 43.328H43.51C42.63 43.328 42.359 42.63 40.776 41.026C39.401 39.693 38.792 39.516 38.453 39.516C37.974 39.516 37.838 39.651 37.838 40.308V42.407C37.838 42.97 37.661 43.308 36.171 43.308C33.707 43.308 30.973 41.818 29.056 39.042C26.165 34.974 25.374 31.927 25.374 31.297C25.374 30.958 25.509 30.641 26.16 30.641H28.488C29.077 30.641 29.301 30.912 29.53 31.542C30.681 34.865 32.598 37.776 33.389 37.776C33.681 37.776 33.816 37.641 33.816 36.896V33.464C33.727 31.881 32.894 31.745 32.894 31.183C32.894 30.912 33.118 30.641 33.477 30.641H37.138C37.633 30.641 37.815 30.912 37.815 31.495V36.125C37.815 36.625 38.039 36.802 38.174 36.802C38.466 36.802 38.716 36.625 39.257 36.083C40.929 34.208 42.127 31.317 42.127 31.317C42.283 30.978 42.554 30.661 43.143 30.661H45.471C46.169 30.661 46.325 31.02 46.169 31.52C45.877 32.874 43.028 36.895 43.028 36.895C42.783 37.301 42.689 37.478 43.028 37.931C43.278 38.27 44.091 38.973 44.632 39.603C45.627 40.733 46.392 41.681 46.596 42.337C46.825 42.988 46.487 43.327 45.83 43.327L45.833 43.328Z" fill="#0077FF"/>
</g>
<defs>
<clipPath id="clip0_443_24847">
<rect width="32" height="32" fill="white" transform="translate(20 20.5)"/>
</clipPath>
</defs>
</svg>
