<svg width="72" height="73" viewBox="0 0 72 73" fill="none" xmlns="http://www.w3.org/2000/svg">
<g id="Group 1216">
<circle id="Ellipse 80" cx="36" cy="36.5" r="35.5" fill="white" stroke="#919CB8"/>
<g id="Vector">
<path d="M52 36.5C52 45.3366 44.8366 52.5 36 52.5C27.1634 52.5 20 45.3366 20 36.5C20 27.6634 27.1634 20.5 36 20.5C44.8366 20.5 52 27.6634 52 36.5Z" fill="#FC3F1D"/>
<path d="M37.8844 37.1974H36.7935C35.0801 37.1974 33.4185 36.1833 33.4185 33.6481C33.4185 31.0069 34.9761 29.9296 36.5598 29.9296H37.8844L37.8844 37.1974ZM39.5978 28.5777H36.6377C33.7303 28.5777 31.2636 30.3734 31.2636 33.8594C31.2636 35.9509 32.4583 37.493 34.5866 38.2536L30.615 44.0845C30.4853 44.2748 30.615 44.4223 30.8221 44.4223H32.6654C32.8212 44.4223 32.9252 44.3802 32.977 44.2748L36.5857 38.5492H37.8844V44.2748C37.8844 44.338 37.9623 44.4223 38.0654 44.4223H39.6757C39.8315 44.4223 39.8835 44.359 39.8835 44.2538V28.7891C39.8835 28.6409 39.7795 28.5777 39.5978 28.5777Z" fill="white"/>
</g>
</g>
</svg>
