<svg width="24" height="28" viewBox="0 0 24 28" fill="none" xmlns="http://www.w3.org/2000/svg">
<g id="xxx-word">
<path id="Vector" d="M21.6767 6.64537H15.8704C15.7678 6.64537 15.6693 6.60459 15.5967 6.532C15.5241 6.45941 15.4833 6.36095 15.4833 6.25829V0.452026C15.4833 0.349365 15.5241 0.250908 15.5967 0.178316C15.6693 0.105723 15.7678 0.0649414 15.8704 0.0649414C15.9731 0.0649414 16.0715 0.105723 16.1441 0.178316C16.2167 0.250908 16.2575 0.349365 16.2575 0.452026V5.87121H21.6767C21.7793 5.87121 21.8778 5.91199 21.9504 5.98458C22.023 6.05717 22.0638 6.15563 22.0638 6.25829C22.0638 6.36095 22.023 6.45941 21.9504 6.532C21.8778 6.60459 21.7793 6.64537 21.6767 6.64537Z" fill="#0F773D"/>
<path id="Vector_2" d="M21.6767 10.5031C21.5741 10.5031 21.4756 10.4623 21.403 10.3897C21.3304 10.3171 21.2896 10.2186 21.2896 10.116V6.41854L15.7102 0.839111H4.25793C3.84729 0.839111 3.45346 1.00224 3.16309 1.29261C2.87272 1.58298 2.70959 1.9768 2.70959 2.38745V9.98746C2.70959 10.0901 2.66881 10.1886 2.59622 10.2612C2.52363 10.3338 2.42517 10.3745 2.32251 10.3745C2.21985 10.3745 2.12139 10.3338 2.0488 10.2612C1.97621 10.1886 1.93542 10.0901 1.93542 9.98746V2.38745C1.93542 1.77148 2.18012 1.18074 2.61567 0.745188C3.05123 0.309634 3.64196 0.064942 4.25793 0.064942H15.8705C15.9213 0.0648512 15.9717 0.0747869 16.0187 0.0941811C16.0658 0.113575 16.1085 0.142048 16.1445 0.177971L21.9508 5.98424C21.9867 6.02025 22.0152 6.06299 22.0346 6.11001C22.054 6.15704 22.0639 6.20742 22.0638 6.25829V10.116C22.0638 10.1668 22.0538 10.2171 22.0343 10.2641C22.0149 10.3111 21.9864 10.3537 21.9504 10.3897C21.9145 10.4256 21.8718 10.4541 21.8249 10.4736C21.7779 10.493 21.7276 10.5031 21.6767 10.5031Z" fill="#0F773D"/>
<path id="Vector_3" d="M19.7413 27.935H4.25793C3.64196 27.935 3.05123 27.6904 2.61567 27.2548C2.18012 26.8192 1.93542 26.2285 1.93542 25.6125V19.8063C1.93542 19.7036 1.97621 19.6052 2.0488 19.5326C2.12139 19.46 2.21985 19.4192 2.32251 19.4192C2.42517 19.4192 2.52363 19.46 2.59622 19.5326C2.66881 19.6052 2.70959 19.7036 2.70959 19.8063V25.6125C2.70959 26.0232 2.87272 26.417 3.16309 26.7074C3.45346 26.9977 3.84729 27.1609 4.25793 27.1609H19.7413C20.1519 27.1609 20.5458 26.9977 20.8361 26.7074C21.1265 26.417 21.2896 26.0232 21.2896 25.6125V19.8063C21.2896 19.7036 21.3304 19.6052 21.403 19.5326C21.4756 19.46 21.5741 19.4192 21.6767 19.4192C21.7794 19.4192 21.8778 19.46 21.9504 19.5326C22.023 19.6052 22.0638 19.7036 22.0638 19.8063V25.6125C22.0638 26.2285 21.8191 26.8192 21.3836 27.2548C20.948 27.6904 20.3573 27.935 19.7413 27.935Z" fill="#0F773D"/>
<path id="Vector_4" d="M17.8059 20.1934H6.19342C6.09076 20.1934 5.9923 20.1526 5.91971 20.08C5.84712 20.0074 5.80634 19.9089 5.80634 19.8063C5.80634 19.7036 5.84712 19.6052 5.91971 19.5326C5.9923 19.46 6.09076 19.4192 6.19342 19.4192H17.8059C17.9086 19.4192 18.0071 19.46 18.0797 19.5326C18.1522 19.6052 18.193 19.7036 18.193 19.8063C18.193 19.9089 18.1522 20.0074 18.0797 20.08C18.0071 20.1526 17.9086 20.1934 17.8059 20.1934Z" fill="#0F773D"/>
<path id="Vector_5" d="M11.9997 24.0642H6.19342C6.09076 24.0642 5.9923 24.0234 5.91971 23.9508C5.84712 23.8782 5.80634 23.7798 5.80634 23.6771C5.80634 23.5745 5.84712 23.476 5.91971 23.4034C5.9923 23.3308 6.09076 23.29 6.19342 23.29H11.9997C12.1023 23.29 12.2008 23.3308 12.2734 23.4034C12.346 23.476 12.3868 23.5745 12.3868 23.6771C12.3868 23.7798 12.346 23.8782 12.2734 23.9508C12.2008 24.0234 12.1023 24.0642 11.9997 24.0642Z" fill="#0F773D"/>
<path id="Vector_6" d="M21.6767 20.1933H2.32251C1.70654 20.1933 1.1158 19.9486 0.680246 19.513C0.244692 19.0775 0 18.4868 0 17.8708V11.9228C0 11.3069 0.244692 10.7161 0.680246 10.2806C1.1158 9.84503 1.70654 9.60034 2.32251 9.60034H2.33799L21.6922 9.72885C22.305 9.73455 22.891 9.98154 23.3229 10.4163C23.7549 10.851 23.9982 11.4385 24 12.0514V17.8708C24 18.1758 23.9399 18.4779 23.8231 18.7597C23.7064 19.0416 23.5352 19.2976 23.3195 19.5133C23.1037 19.729 22.8476 19.9001 22.5657 20.0167C22.2839 20.1334 21.9818 20.1934 21.6767 20.1933ZM2.32251 10.3745C1.91186 10.3745 1.51804 10.5376 1.22767 10.828C0.937296 11.1184 0.774169 11.5122 0.774168 11.9228V17.8708C0.774169 18.2814 0.937296 18.6753 1.22767 18.9656C1.51804 19.256 1.91186 19.4191 2.32251 19.4191H21.6767C22.0874 19.4191 22.4812 19.256 22.7716 18.9656C23.0619 18.6753 23.2251 18.2814 23.2251 17.8708V12.0514C23.2239 11.6427 23.0616 11.251 22.7735 10.9611C22.4854 10.6713 22.0947 10.5067 21.686 10.503L2.3318 10.3745H2.32251Z" fill="#0F773D"/>
<path id="Vector_7" d="M8.31769 16.787H5.63519V12.6592H8.29059V13.2731H6.37917V14.3918H7.91512V14.9902H6.37917V16.1453H8.31459L8.31769 16.787Z" fill="#0F773D"/>
<path id="Vector_8" d="M11.2393 16.787H10.4512L9.804 15.6745L9.09796 16.787H8.50494L9.5222 15.2147L8.64197 13.7329H9.43162L9.93328 14.6309L10.5046 13.7329H11.0822L10.219 15.0575L11.2393 16.787Z" fill="#0F773D"/>
<path id="Vector_9" d="M13.3467 15.6653L13.9397 15.7256C13.8628 16.1086 13.7147 16.3925 13.4954 16.5772C13.271 16.7621 12.987 16.8592 12.6964 16.8505C12.2748 16.8505 11.9506 16.6957 11.7241 16.386C11.4905 16.0567 11.3712 15.66 11.3842 15.2565C11.3842 14.7966 11.5081 14.4165 11.7558 14.1162C11.8749 13.9694 12.0265 13.8523 12.1986 13.7741C12.3707 13.6959 12.5586 13.6588 12.7475 13.6656C13.4128 13.6656 13.8089 14.0163 13.9359 14.7177L13.3428 14.799C13.2912 14.4201 13.1047 14.2307 12.7831 14.2307C12.6771 14.2259 12.5719 14.2527 12.4812 14.3079C12.3905 14.363 12.3182 14.444 12.2737 14.5404C12.162 14.7715 12.1076 15.0262 12.115 15.2828C12.115 15.5925 12.17 15.8304 12.2799 15.9966C12.328 16.0759 12.3965 16.141 12.4781 16.1851C12.5598 16.2292 12.6517 16.2507 12.7444 16.2474C13.0474 16.2459 13.2481 16.0518 13.3467 15.6653Z" fill="#0F773D"/>
<path id="Vector_10" d="M16.4125 15.8131L17.0318 15.8975C16.9534 16.1707 16.7878 16.4107 16.5603 16.5811C16.3056 16.7673 15.9955 16.8622 15.6801 16.8505C15.2569 16.8505 14.9163 16.7083 14.6582 16.4239C14.4001 16.1395 14.2711 15.7545 14.2711 15.2689C14.2711 14.8075 14.4001 14.4255 14.6582 14.1231C14.9163 13.8207 15.269 13.6694 15.7165 13.6694C16.1521 13.6694 16.4876 13.8186 16.7229 14.1169C16.9583 14.4152 17.0772 14.7982 17.0798 15.2658V15.3432H14.9888C14.9837 15.5116 15.0035 15.6799 15.0476 15.8425C15.09 15.9725 15.171 16.0865 15.2799 16.1692C15.4054 16.2649 15.5603 16.3141 15.718 16.3086C16.0607 16.3091 16.2922 16.1439 16.4125 15.8131ZM16.3699 14.8996C16.3768 14.7001 16.3057 14.5057 16.1717 14.3577C16.1104 14.2929 16.0367 14.241 15.9551 14.2052C15.8734 14.1693 15.7854 14.1502 15.6962 14.1489C15.607 14.1476 15.5185 14.1642 15.4358 14.1976C15.3531 14.2311 15.278 14.2808 15.2148 14.3437C15.0783 14.4961 14.9992 14.6913 14.9911 14.8957L16.3699 14.8996Z" fill="#0F773D"/>
<path id="Vector_11" d="M18.4029 16.787H17.7131V12.6592H18.4029V16.787Z" fill="#0F773D"/>
</g>
</svg>
