<svg width="24" height="32" viewBox="0 0 24 32" fill="none" xmlns="http://www.w3.org/2000/svg">
<g id="Group">
<path id="Vector" d="M17.0149 0.37207H0.816558C0.365581 0.37207 0 0.737652 0 1.44705V31.0697C0 31.2623 0.365581 31.6279 0.816558 31.6279H23.1834C23.6344 31.6279 24 31.2623 24 31.0697V7.61561C24 7.22714 23.9481 7.10212 23.8566 7.01002L17.362 0.515512C17.27 0.423977 17.1449 0.37207 17.0149 0.37207Z" fill="#E9E9E0"/>
<path id="Vector_2" d="M17.3022 0.456299V7.06969H23.9156L17.3022 0.456299Z" fill="#D9D7CA"/>
<path id="Vector_3" d="M7.2636 18.9716C7.06937 18.9716 6.88295 18.9085 6.72388 18.7896C6.14286 18.3537 6.06472 17.8687 6.10156 17.5383C6.20314 16.6296 7.32667 15.6786 9.44202 14.7096C10.2815 12.87 11.0802 10.6034 11.5563 8.70964C10.9992 7.49736 10.4578 5.92453 10.8524 5.00192C10.9909 4.67876 11.1633 4.43095 11.4854 4.32378C11.6126 4.28136 11.9341 4.22778 12.0524 4.22778C12.3337 4.22778 12.581 4.59002 12.7563 4.81327C12.9209 5.02313 13.2943 5.46797 12.5481 8.60974C13.3004 10.1636 14.3665 11.7465 15.3879 12.8304C16.1196 12.6981 16.7492 12.6306 17.2621 12.6306C18.1362 12.6306 18.6658 12.8343 18.8818 13.254C19.0604 13.6012 18.9873 14.0069 18.6642 14.4596C18.3533 14.8944 17.9246 15.1243 17.4251 15.1243C16.7464 15.1243 15.9561 14.6957 15.0748 13.849C13.4913 14.18 11.6422 14.7705 10.1475 15.4241C9.68091 16.4142 9.23384 17.2118 8.81747 17.7967C8.24537 18.5976 7.75198 18.9716 7.2636 18.9716ZM8.74937 16.1106C7.55663 16.7809 7.07049 17.3318 7.03533 17.6421C7.02974 17.6935 7.01467 17.8285 7.27588 18.0283C7.35905 18.0021 7.84463 17.7805 8.74937 16.1106ZM16.3607 13.6313C16.8156 13.9813 16.9267 14.1582 17.2242 14.1582C17.3548 14.1582 17.727 14.1526 17.8995 13.9121C17.9827 13.7954 18.015 13.7206 18.0279 13.6804C17.9592 13.6442 17.8683 13.5705 17.3721 13.5705C17.0902 13.571 16.7358 13.5833 16.3607 13.6313ZM12.1914 9.95764C11.7923 11.3385 11.2655 12.8293 10.699 14.1794C11.8655 13.7268 13.1336 13.3316 14.3246 13.052C13.5711 12.1768 12.8182 11.084 12.1914 9.95764ZM11.8526 5.23467C11.7979 5.25309 11.1103 6.21532 11.9062 7.02964C12.4359 5.84918 11.8766 5.22685 11.8526 5.23467Z" fill="#CC4B4C"/>
<path id="Vector_4" d="M23.1834 31.6278H0.816558C0.365581 31.6278 0 31.2622 0 30.8112V22.1394H24V30.8112C24 31.2622 23.6344 31.6278 23.1834 31.6278Z" fill="#CC4B4C"/>
<g id="Group_2">
<path id="Vector_5" d="M6.07533 29.9534H5.15942V24.3296H6.77691C7.0158 24.3296 7.25245 24.3675 7.48631 24.444C7.72017 24.5205 7.93003 24.6349 8.11589 24.7873C8.30175 24.9396 8.45189 25.1244 8.56631 25.3404C8.68073 25.5564 8.73821 25.7992 8.73821 26.0693C8.73821 26.3545 8.68966 26.6124 8.5931 26.844C8.49654 27.0756 8.36147 27.2704 8.18845 27.4278C8.01542 27.5852 7.80668 27.7075 7.56277 27.794C7.31886 27.8805 7.04873 27.9234 6.75403 27.9234H6.07477L6.07533 29.9534ZM6.07533 25.0239V27.252H6.91477C7.0264 27.252 7.13691 27.233 7.24686 27.1945C7.35626 27.1566 7.45673 27.0941 7.54826 27.0075C7.6398 26.921 7.71347 26.8005 7.76928 26.6453C7.8251 26.4901 7.853 26.2981 7.853 26.0693C7.853 25.9778 7.84017 25.8717 7.81505 25.7528C7.78938 25.6334 7.73747 25.519 7.65877 25.4096C7.57952 25.3002 7.46901 25.2087 7.32668 25.135C7.18435 25.0613 6.9957 25.0245 6.76184 25.0245L6.07533 25.0239Z" fill="white"/>
<path id="Vector_6" d="M14.3546 26.9852C14.3546 27.4479 14.3049 27.8436 14.2055 28.1718C14.1062 28.5 13.9806 28.7746 13.8277 28.9962C13.6747 29.2178 13.5034 29.3919 13.3125 29.5192C13.1216 29.6464 12.9374 29.7413 12.7594 29.8055C12.5813 29.8691 12.4184 29.9099 12.271 29.9277C12.1237 29.9445 12.0143 29.9534 11.9428 29.9534H9.81409V24.3296H11.508C11.9813 24.3296 12.3972 24.4049 12.7555 24.5545C13.1138 24.7041 13.4119 24.9045 13.6485 25.1534C13.8852 25.4023 14.0615 25.6864 14.1787 26.004C14.2959 26.3221 14.3546 26.6492 14.3546 26.9852ZM11.6381 29.282C12.2587 29.282 12.7064 29.0838 12.981 28.687C13.2556 28.2901 13.3929 27.7153 13.3929 26.9623C13.3929 26.7285 13.365 26.4968 13.3092 26.268C13.2528 26.0392 13.1451 25.8321 12.9849 25.6462C12.8247 25.4604 12.607 25.3102 12.3324 25.1958C12.0578 25.0814 11.7017 25.0239 11.2641 25.0239H10.73V29.282H11.6381Z" fill="white"/>
<path id="Vector_7" d="M16.6135 25.0239V26.7943H18.9638V27.42H16.6135V29.9534H15.6825V24.3296H19.1999V25.0239H16.6135Z" fill="white"/>
</g>
</g>
</svg>
