<svg width="24" height="24" viewBox="0 0 24 24" fill="none" xmlns="http://www.w3.org/2000/svg">
<g id="Layer_x0020_1">
<path id="Vector" fill-rule="evenodd" clip-rule="evenodd" d="M2.56661 19.0638L2.57549 4.78319L13.4103 2.92884V20.9128L2.56661 19.0638ZM19.6359 14.2432H13.8384V13.1207H19.6359V12.3729H13.8384V11.2521H19.6359V10.5043H13.8384V9.38177H19.6359V8.63399H13.8384V7.51143H19.6359V6.76365H13.8384L13.849 4.99811H20.8668C21.2433 4.9839 21.3197 5.0585 21.3055 5.43683V18.3445V18.4688C21.3108 18.6944 21.2416 18.888 20.8668 18.8454H13.849L13.8384 16.8613H19.6359V16.1136H13.8384V14.991H19.6359V14.2432ZM0 23.9839H24L23.968 0.0158691H0V23.9839Z" fill="#2B5797"/>
<path id="Vector_2" fill-rule="evenodd" clip-rule="evenodd" d="M10.0976 8.60202L9.23965 13.2095L8.35155 8.74767L7.14906 8.81694L6.29649 13.0478L5.57535 8.94838L4.51318 8.96081L5.61798 14.8969L6.73343 14.9573L7.64995 10.8542L8.13841 12.9342C8.2805 13.6411 8.42437 14.3178 8.55581 15.039L9.81691 15.1686L11.2787 8.55762L10.0976 8.60202Z" fill="#2B5797"/>
</g>
</svg>
